<svg id="logo.svg" xmlns="http://www.w3.org/2000/svg" width="191" height="91" viewBox="0 0 191 91">
  <defs>
    <style>
      .cls-1, .cls-5 {
        fill: #fff;
      }

      .cls-1, .cls-2 {
        stroke: #00aeef;
      }

      .cls-1, .cls-2, .cls-6 {
        stroke-width: 1px;
      }

      .cls-2 {
        fill: none;
      }

      .cls-2, .cls-4, .cls-5, .cls-6 {
        fill-rule: evenodd;
      }

      .cls-3 {
        fill: #2795b1;
      }

      .cls-4 {
        fill: #ac0000;
      }

      .cls-6 {
        fill: #221f72;
        stroke: #fff;
        stroke-linejoin: round;
        stroke-opacity: 0.38;
      }
    </style>
  </defs>
  <ellipse id="Эллипс_7" data-name="Эллипс 7" class="cls-1" cx="95.5" cy="45.5" rx="95" ry="45"/>
  <ellipse id="Эллипс_7_копия" data-name="Эллипс 7 копия" class="cls-1" cx="95.5" cy="45.5" rx="75" ry="45"/>
  <path id="Фигура_4" data-name="Фигура 4" class="cls-2" d="M518,91H371" transform="translate(-349.5 -73.5)"/>
  <path id="Фигура_4_копия_3" data-name="Фигура 4 копия 3" class="cls-2" d="M445,164V75" transform="translate(-349.5 -73.5)"/>
  <path id="Фигура_4_копия_2" data-name="Фигура 4 копия 2" class="cls-2" d="M539,119H350" transform="translate(-349.5 -73.5)"/>
  <path id="Фигура_4_копия" data-name="Фигура 4 копия" class="cls-2" d="M519,147H372" transform="translate(-349.5 -73.5)"/>
  <path id="Фигура_2" data-name="Фигура 2" class="cls-2" d="M444,163s-94.5-41.751,1-88" transform="translate(-349.5 -73.5)"/>
  <path id="Фигура_2_копия" data-name="Фигура 2 копия" class="cls-2" d="M445.433,163s94.226-41.751-1-88" transform="translate(-349.5 -73.5)"/>
  <circle id="Эллипс_8" data-name="Эллипс 8" class="cls-3" cx="95" cy="45" r="38.5"/>
  <g id="Группа_32" data-name="Группа 32">
    <path id="Фигура_3" data-name="Фигура 3" class="cls-4" d="M444.987,99.493v16.57l3.9,0.974Z" transform="translate(-349.5 -73.5)"/>
    <path id="Фигура_3_копия" data-name="Фигура 3 копия" class="cls-5" d="M444.987,99.493v16.57l-3.9.974Z" transform="translate(-349.5 -73.5)"/>
  </g>
  <g id="Группа_32_копия" data-name="Группа 32 копия">
    <path id="Фигура_3-2" data-name="Фигура 3" class="cls-4" d="M461.557,119.961h-16.57v3.9Z" transform="translate(-349.5 -73.5)"/>
    <path id="Фигура_3_копия-2" data-name="Фигура 3 копия" class="cls-5" d="M461.557,119.961h-16.57v-3.9Z" transform="translate(-349.5 -73.5)"/>
  </g>
  <g id="Группа_32_копия_2" data-name="Группа 32 копия 2">
    <path id="Фигура_3-3" data-name="Фигура 3" class="cls-5" d="M428.418,119.961h16.569v3.9Z" transform="translate(-349.5 -73.5)"/>
    <path id="Фигура_3_копия-3" data-name="Фигура 3 копия" class="cls-4" d="M428.418,119.961h16.569v-3.9Z" transform="translate(-349.5 -73.5)"/>
  </g>
  <g id="Группа_31" data-name="Группа 31">
    <path id="Фигура_3_копия_2" data-name="Фигура 3 копия 2" class="cls-5" d="M444.987,140.43V123.86l3.9-.975Z" transform="translate(-349.5 -73.5)"/>
    <path id="Фигура_3_копия_2-2" data-name="Фигура 3 копия 2" class="cls-4" d="M444.987,140.43V123.86l-3.9-.975Z" transform="translate(-349.5 -73.5)"/>
  </g>
  <g id="Группа_33" data-name="Группа 33">
    <path id="Фигура_5" data-name="Фигура 5" class="cls-4" d="M404.6,114.1a6.9,6.9,0,0,1-1.92-6.874C403.129,107.21,405.946,107.03,404.6,114.1Z" transform="translate(-349.5 -73.5)"/>
    <path id="Фигура_5_копия" data-name="Фигура 5 копия" class="cls-4" d="M405.928,108.321a6.931,6.931,0,0,1-.732-7.11C405.64,101.273,408.445,101.593,405.928,108.321Z" transform="translate(-349.5 -73.5)"/>
    <path id="Фигура_5_копия_2" data-name="Фигура 5 копия 2" class="cls-4" d="M408.623,101.451a6.939,6.939,0,0,1-.359-7.141C408.705,94.4,411.489,94.871,408.623,101.451Z" transform="translate(-349.5 -73.5)"/>
    <path id="Фигура_5_копия_3" data-name="Фигура 5 копия 3" class="cls-4" d="M411.918,95.507a6.942,6.942,0,0,1,.739-7.11C413.079,88.554,415.756,89.467,411.918,95.507Z" transform="translate(-349.5 -73.5)"/>
    <path id="Фигура_5_копия_4" data-name="Фигура 5 копия 4" class="cls-4" d="M416.285,90.479a6.931,6.931,0,0,1,1.615-6.957C418.3,83.733,420.841,84.985,416.285,90.479Z" transform="translate(-349.5 -73.5)"/>
    <path id="Фигура_5_копия_5" data-name="Фигура 5 копия 5" class="cls-4" d="M421.577,85.366a6.906,6.906,0,0,1,2.561-6.653C424.5,78.978,426.848,80.586,421.577,85.366Z" transform="translate(-349.5 -73.5)"/>
    <path id="Фигура_5_копия_6" data-name="Фигура 5 копия 6" class="cls-4" d="M426.534,82.829a6.819,6.819,0,0,1,4.2-5.715C431.019,77.47,432.859,79.659,426.534,82.829Z" transform="translate(-349.5 -73.5)"/>
    <path id="Фигура_5_копия_7" data-name="Фигура 5 копия 7" class="cls-4" d="M432.826,80.427A6.755,6.755,0,0,1,437.9,75.5C438.117,75.9,439.577,78.372,432.826,80.427Z" transform="translate(-349.5 -73.5)"/>
    <path id="Фигура_5_копия_8" data-name="Фигура 5 копия 8" class="cls-4" d="M439.157,78.913A6.682,6.682,0,0,1,445.011,75C445.159,75.437,446.16,78.136,439.157,78.913Z" transform="translate(-349.5 -73.5)"/>
    <path id="Фигура_5_копия_9" data-name="Фигура 5 копия 9" class="cls-4" d="M446.507,78.239a6.609,6.609,0,0,1,6.518-2.588C453.082,76.107,453.516,78.959,446.507,78.239Z" transform="translate(-349.5 -73.5)"/>
    <path id="Фигура_5_копия_10" data-name="Фигура 5 копия 10" class="cls-4" d="M454.076,78.873a6.582,6.582,0,0,1,6.743-1.891C460.83,77.44,460.976,80.323,454.076,78.873Z" transform="translate(-349.5 -73.5)"/>
    <path id="Фигура_5_копия_11" data-name="Фигура 5 копия 11" class="cls-4" d="M460.709,81.329a6.552,6.552,0,0,1,6.935-.91C467.592,80.874,467.344,83.75,460.709,81.329Z" transform="translate(-349.5 -73.5)"/>
    <path id="Фигура_5_копия_12" data-name="Фигура 5 копия 12" class="cls-4" d="M466.5,84.41a6.537,6.537,0,0,1,6.948.79C473.294,85.63,472.388,88.364,466.5,84.41Z" transform="translate(-349.5 -73.5)"/>
    <path id="Фигура_5_копия_13" data-name="Фигура 5 копия 13" class="cls-4" d="M471.377,88.031a6.544,6.544,0,0,1,6.855,1.407C478.04,89.852,476.905,92.5,471.377,88.031Z" transform="translate(-349.5 -73.5)"/>
    <path id="Фигура_5_копия_14" data-name="Фигура 5 копия 14" class="cls-4" d="M475.359,92.553a6.559,6.559,0,0,1,6.655,2.189C481.778,95.131,480.359,97.626,475.359,92.553Z" transform="translate(-349.5 -73.5)"/>
    <path id="Фигура_5_копия_15" data-name="Фигура 5 копия 15" class="cls-4" d="M478.45,97.041a6.591,6.591,0,0,1,6.33,3.037C484.5,100.434,482.779,102.724,478.45,97.041Z" transform="translate(-349.5 -73.5)"/>
    <path id="Фигура_5_копия_16" data-name="Фигура 5 копия 16" class="cls-4" d="M480.581,102.6a6.623,6.623,0,0,1,5.984,3.7C486.248,106.626,484.3,108.72,480.581,102.6Z" transform="translate(-349.5 -73.5)"/>
    <path id="Фигура_5_копия_17" data-name="Фигура 5 копия 17" class="cls-4" d="M481.88,108.075a6.673,6.673,0,0,1,5.393,4.549C486.913,112.9,484.692,114.679,481.88,108.075Z" transform="translate(-349.5 -73.5)"/>
    <path id="Фигура_5_копия_18" data-name="Фигура 5 копия 18" class="cls-4" d="M483.138,113.667a6.72,6.72,0,0,1,4.847,5.153C487.6,119.049,485.191,120.558,483.138,113.667Z" transform="translate(-349.5 -73.5)"/>
    <path id="Фигура_5_копия_19" data-name="Фигура 5 копия 19" class="cls-4" d="M483.6,119.2a6.788,6.788,0,0,1,3.979,5.88C487.155,125.239,484.544,126.336,483.6,119.2Z" transform="translate(-349.5 -73.5)"/>
    <path id="Фигура_5_копия_20" data-name="Фигура 5 копия 20" class="cls-4" d="M483.388,124.7a6.872,6.872,0,0,1,2.511,6.673C485.454,131.426,482.663,131.861,483.388,124.7Z" transform="translate(-349.5 -73.5)"/>
    <path id="Фигура_5_копия_21" data-name="Фигура 5 копия 21" class="cls-4" d="M482.78,131.454a6.9,6.9,0,0,1,1.806,6.908C484.137,138.37,481.318,138.5,482.78,131.454Z" transform="translate(-349.5 -73.5)"/>
    <path id="Фигура_5_копия_22" data-name="Фигура 5 копия 22" class="cls-4" d="M480.443,136.273a6.931,6.931,0,0,1,.713,7.112C480.712,143.321,477.908,142.994,480.443,136.273Z" transform="translate(-349.5 -73.5)"/>
    <path id="Фигура_5_копия_23" data-name="Фигура 5 копия 23" class="cls-4" d="M476.934,141.182a6.945,6.945,0,0,1,.046,7.151C476.544,148.225,473.783,147.626,476.934,141.182Z" transform="translate(-349.5 -73.5)"/>
    <path id="Фигура_5_копия_24" data-name="Фигура 5 копия 24" class="cls-4" d="M472.419,146.126a6.943,6.943,0,0,1-.532,7.13C471.461,153.112,468.758,152.281,472.419,146.126Z" transform="translate(-349.5 -73.5)"/>
    <path id="Фигура_5_копия_25" data-name="Фигура 5 копия 25" class="cls-4" d="M468.084,150.166a6.934,6.934,0,0,1-1.471,6.99C466.21,156.955,463.642,155.757,468.084,150.166Z" transform="translate(-349.5 -73.5)"/>
    <path id="Фигура_5_копия_26" data-name="Фигура 5 копия 26" class="cls-4" d="M462.884,153.354a6.9,6.9,0,0,1-2.605,6.635C459.915,159.721,457.582,158.1,462.884,153.354Z" transform="translate(-349.5 -73.5)"/>
    <path id="Фигура_5_копия_27" data-name="Фигура 5 копия 27" class="cls-4" d="M457.641,154.671a6.855,6.855,0,0,1-3.653,6.1C453.673,160.441,451.638,158.44,457.641,154.671Z" transform="translate(-349.5 -73.5)"/>
    <path id="Фигура_5_копия_28" data-name="Фигура 5 копия 28" class="cls-4" d="M452.787,156.608a6.716,6.716,0,0,1-5.51,4.4C447.094,160.591,445.873,157.988,452.787,156.608Z" transform="translate(-349.5 -73.5)"/>
    <path id="Фигура_5_копия_29" data-name="Фигура 5 копия 29" class="cls-4" d="M446.5,157.387a6.623,6.623,0,0,1-6.393,2.894C440.032,159.829,439.469,157,446.5,157.387Z" transform="translate(-349.5 -73.5)"/>
    <path id="Фигура_5_копия_30" data-name="Фигура 5 копия 30" class="cls-4" d="M438.939,157.7a6.593,6.593,0,0,1-6.626,2.279C432.276,159.518,431.97,156.648,438.939,157.7Z" transform="translate(-349.5 -73.5)"/>
    <path id="Фигура_5_копия_31" data-name="Фигура 5 копия 31" class="cls-4" d="M432.388,156.594a6.545,6.545,0,0,1-6.97.559C425.492,156.7,425.879,153.842,432.388,156.594Z" transform="translate(-349.5 -73.5)"/>
    <path id="Фигура_5_копия_32" data-name="Фигура 5 копия 32" class="cls-4" d="M426.59,154.245a6.536,6.536,0,0,1-6.963-.644C419.773,153.168,420.624,150.415,426.59,154.245Z" transform="translate(-349.5 -73.5)"/>
    <path id="Фигура_5_копия_33" data-name="Фигура 5 копия 33" class="cls-4" d="M420.68,150.885a6.552,6.552,0,0,1-6.768-1.793C414.125,148.689,415.4,146.115,420.68,150.885Z" transform="translate(-349.5 -73.5)"/>
    <path id="Фигура_5_копия_34" data-name="Фигура 5 копия 34" class="cls-4" d="M415.572,146.622a6.594,6.594,0,0,1-6.3-3.1C409.559,143.166,411.3,140.9,415.572,146.622Z" transform="translate(-349.5 -73.5)"/>
    <path id="Фигура_5_копия_35" data-name="Фигура 5 копия 35" class="cls-4" d="M411.365,141.251a6.649,6.649,0,0,1-5.686-4.16C406.02,136.793,408.115,134.859,411.365,141.251Z" transform="translate(-349.5 -73.5)"/>
    <path id="Фигура_5_копия_36" data-name="Фигура 5 копия 36" class="cls-4" d="M407.513,135.242a6.79,6.79,0,0,1-3.918-5.921C404.016,129.162,406.638,128.094,407.513,135.242Z" transform="translate(-349.5 -73.5)"/>
    <path id="Фигура_5_копия_37" data-name="Фигура 5 копия 37" class="cls-4" d="M405.3,127.564a6.828,6.828,0,0,1-3.344-6.279C402.39,121.169,405.1,120.363,405.3,127.564Z" transform="translate(-349.5 -73.5)"/>
    <path id="Фигура_5_копия_38" data-name="Фигура 5 копия 38" class="cls-4" d="M404.34,120.689A6.824,6.824,0,0,1,401,114.41C401.43,114.294,404.14,113.488,404.34,120.689Z" transform="translate(-349.5 -73.5)"/>
  </g>
  <path id="AZIMUT" class="cls-6" d="M426.628,99.119q-1.443-4.285-2.842-8.452-1.242.72-2.444,1.533-1.35,5.891-2.644,11.9,0.815-.651,1.653-1.256,0.255-1.166.511-2.327,1.581-1.1,3.236-2.042,0.261,0.834.523,1.672Q425.614,99.605,426.628,99.119ZM423.7,97.175q-1.234.719-2.427,1.53,0.6-2.723,1.21-5.422Q423.086,95.218,423.7,97.175Zm10.826-.887v-1.7a41.076,41.076,0,0,0-4.751,1.482q2.307-4.242,4.688-8.2V86.351a41,41,0,0,0-6.884,2.375v1.7a40.987,40.987,0,0,1,4.437-1.686q-2.328,4.153-4.58,8.589v1.416A41.032,41.032,0,0,1,434.526,96.288Zm4.319-9.245v6.876q-1.157.157-2.3,0.379v1.546a41.242,41.242,0,0,1,6.64-.736V93.562q-1.164.034-2.325,0.134V86.82q1.161-.1,2.325-0.134V85.156a41.242,41.242,0,0,0-6.64.736v1.531Q437.689,87.2,438.845,87.043Zm14.235,8.972q-0.258-5.032-.516-10.06-1.127-.228-2.261-0.392-0.484,1.388-.971,2.788-0.222.723-.443,1.449-0.221-.82-0.443-1.638-0.462-1.458-.926-2.906-1.122-.085-2.245-0.109-0.26,4.971-.518,9.945,0.844,0.008,1.689.05,0.088-2.832.178-5.664,0.028-1.1.056-2.2l0.444,1.55q0.529,1.729,1.057,3.472,0.62,0.057,1.239.133,0.582-1.623,1.163-3.229l0.5-1.443,0.072,2.258,0.192,5.66Q452.219,95.83,453.08,96.015Zm8.4-7.167q-0.923-.422-1.862-0.8v6.412a3.489,3.489,0,0,1-.107.955,1.087,1.087,0,0,1-.321.549,0.8,0.8,0,0,1-.537.178,2.555,2.555,0,0,1-.794-0.166,3.163,3.163,0,0,1-.837-0.417,2.241,2.241,0,0,1-.557-0.582,2.216,2.216,0,0,1-.313-0.753,4.339,4.339,0,0,1-.089-0.918V86.823q-0.963-.284-1.935-0.52v6.6a5.585,5.585,0,0,0,.2,1.518,3.709,3.709,0,0,0,.638,1.276,4.463,4.463,0,0,0,1.145,1.022,7.814,7.814,0,0,0,1.681.782,5.453,5.453,0,0,0,1.553.326,2.1,2.1,0,0,0,1.161-.25,1.764,1.764,0,0,0,.724-0.883,4.1,4.1,0,0,0,.252-1.558v-6.29Zm8.108,6.466V93.753a41.156,41.156,0,0,0-6.869-4.314V91q1.326,0.661,2.615,1.423v8.391q0.906,0.537,1.79,1.123V93.546q1.257,0.834,2.464,1.768h0Z" transform="translate(-349.5 -73.5)"/>
  <path id="Air_Trade" data-name="Air Trade" class="cls-6" d="M416.933,138.5q-1.046-5.718-1.981-11.571-0.831-1.331-1.566-2.769-0.827,2.738-1.524,5.34,0.439,1.1.93,2.155c0.1-.36.2-0.723,0.3-1.086a37.327,37.327,0,0,0,2.066,3.681q0.175,1.136.356,2.266Q416.2,137.543,416.933,138.5Zm-2.039-6.014q-0.822-1.327-1.551-2.759,0.366-1.307.756-2.637Q414.486,129.8,414.894,132.487Zm4.561,1.587v6.017q-0.864-.9-1.673-1.878v1.353a35.049,35.049,0,0,0,5.071,4.987V143.2q-0.952-.763-1.861-1.6v-6.017q0.907,0.837,1.861,1.6v-1.34a35,35,0,0,1-5.071-4.987v1.34Q418.591,133.172,419.455,134.074Zm12.214,15.636q-0.8-1.785-1.586-3.607a7.1,7.1,0,0,0-.6-1.14,2.632,2.632,0,0,0-.654-0.689,2.943,2.943,0,0,0,.852.188,1.372,1.372,0,0,0,.68-0.12,1,1,0,0,0,.446-0.445,1.686,1.686,0,0,0,.159-0.784,3.007,3.007,0,0,0-.254-1.236,3.94,3.94,0,0,0-.72-1.073,6.884,6.884,0,0,0-1.119-.955c-0.434-.3-0.914-0.6-1.436-0.9q-1.38-.786-2.7-1.7v8.709q0.849,0.589,1.727,1.127v-3.6l0.336,0.2a3.188,3.188,0,0,1,.79.661,2.962,2.962,0,0,1,.529.894q0.674,1.763,1.361,3.5Q430.561,149.261,431.669,149.71Zm-2.773-6.865a0.546,0.546,0,0,1-.376.2,1.366,1.366,0,0,1-.583-0.072,3.7,3.7,0,0,1-.752-0.343c-0.24-.14-0.48-0.282-0.717-0.427v-2.459q0.384,0.235.775,0.461a5.244,5.244,0,0,1,1.336,1.012,1.706,1.706,0,0,1,.451,1.151A0.748,0.748,0,0,1,428.9,142.845Zm20.676,2.012v-1.366a37.632,37.632,0,0,1-7.926,0v1.366q1.461,0.155,2.93.195V152.4q1.032,0.028,2.066,0v-7.343Q448.111,145.012,449.572,144.857Zm9.223,5.148q-0.807-1.152-1.625-2.344a2.322,2.322,0,0,0-.629-0.658,1.045,1.045,0,0,0-.694-0.157,4.6,4.6,0,0,0,.9-0.5,3.582,3.582,0,0,0,.709-0.666,2.932,2.932,0,0,0,.46-0.8,2.546,2.546,0,0,0,.164-0.911,1.768,1.768,0,0,0-.261-1.034,1.276,1.276,0,0,0-.746-0.5,3.274,3.274,0,0,0-1.182-.049,12.8,12.8,0,0,0-1.559.287q-1.522.364-3.071,0.6v8.708q1-.151,1.988-0.358v-3.6q0.189-.039.378-0.081a1.739,1.739,0,0,1,.877,0,0.988,0.988,0,0,1,.578.457q0.732,1.206,1.456,2.384Q457.68,150.429,458.8,150.005Zm-2.877-4.642a1.765,1.765,0,0,1-.4.51,2.667,2.667,0,0,1-.632.408,4.116,4.116,0,0,1-.827.281c-0.267.062-.534,0.121-0.8,0.177V144.28q0.435-.09.867-0.191a3.045,3.045,0,0,1,1.458-.092,0.708,0.708,0,0,1,.483.782A1.262,1.262,0,0,1,455.918,145.363Zm11.414-.015q-1.311-3.383-2.7-6.9-1.228.746-2.507,1.384-1.437,5.075-2.926,10.014,0.938-.371,1.857-0.792,0.277-.987.555-1.98a35.409,35.409,0,0,0,3.327-1.825q0.256,0.7.51,1.4,0.957-.617,1.88-1.3h0Zm-2.782-1.2q-1.224.737-2.5,1.37,0.641-2.344,1.267-4.714Q463.942,142.493,464.55,144.152Zm9.218-11.362a0.722,0.722,0,0,0-.632-0.557,1.964,1.964,0,0,0-1.09.452,15.09,15.09,0,0,0-1.6,1.355q-1.211,1.137-2.507,2.14v8.708q1.111-.861,2.161-1.82a11.741,11.741,0,0,0,1.825-2.111,12.19,12.19,0,0,0,1.186-2.22,11.734,11.734,0,0,0,.658-2.2,11.179,11.179,0,0,0,.206-2.1A4.9,4.9,0,0,0,473.768,132.79Zm-1.844,6.391a6.933,6.933,0,0,1-1.686,2.387q-0.34.315-.687,0.618v-5.963q0.4-.351.794-0.717a5.4,5.4,0,0,1,1.044-.814,0.706,0.706,0,0,1,.651-0.095,0.792,0.792,0,0,1,.339.569,5.357,5.357,0,0,1,.1,1.149A7.268,7.268,0,0,1,471.924,139.181Zm6.868-8.334v-1.385a37.892,37.892,0,0,1-2.32,4.456V131.5a37.871,37.871,0,0,0,2.223-4.238v-1.353a37.785,37.785,0,0,1-2.223,4.238v-2.165a37.985,37.985,0,0,0,2.32-4.457v-1.386a37.436,37.436,0,0,1-3.558,6.356V137.2a37.436,37.436,0,0,0,3.558-6.356h0Z" transform="translate(-349.5 -73.5)"/>
</svg>
