<svg xmlns="http://www.w3.org/2000/svg" width="25.719" height="29.53" viewBox="0 0 25.719 29.53">
  <defs>
    <style>
      .cls-1 {
        fill: #2795b1;
        fill-rule: evenodd;
      }
    </style>
  </defs>
  <path id="mailbot.svg" class="cls-1" d="M993.155,3726H972.573a2.587,2.587,0,0,1-2.573-2.6v-15.57h0a0.886,0.886,0,0,1,.243-0.61s0,0,.008-0.01l3.179-3.2v-6.68a0.864,0.864,0,0,1,.858-0.87H991.44a0.864,0.864,0,0,1,.858.87v6.68l3.179,3.2a0.9,0.9,0,0,1,.251.62h0v15.57A2.591,2.591,0,0,1,993.155,3726Zm-0.355-1.73-6.861-6.92h-6.15l-6.861,6.92H992.8Zm-19.37-17.82-1.36,1.38,1.36,1.37v-2.75Zm-1.715,3.47v13.12l6.506-6.56Zm18.868-5.55v-6.18H975.146v12.74l4.643,4.68h6.15l4.644-4.68v-6.56Zm1.715,2.08v2.75l1.36-1.37Zm1.715,3.47-6.506,6.56,6.506,6.56v-13.12Zm-13.455-.29a4.405,4.405,0,0,0,4.328.21,0.852,0.852,0,0,1,1.138.43,0.861,0.861,0,0,1-.421,1.14,6.094,6.094,0,1,1,3.264-5.43,2.561,2.561,0,0,1-4.288,1.93,2.564,2.564,0,0,1-1.715.67,2.6,2.6,0,1,1,2.573-2.6v0.01a0.858,0.858,0,1,0,1.715-.01A4.288,4.288,0,1,0,980.558,3709.63Zm2.306-4.52a0.87,0.87,0,1,0,.846,1.01,0.878,0.878,0,0,1,.006-0.24A0.865,0.865,0,0,0,982.864,3705.11Z" transform="translate(-970 -3696.47)"/>
</svg>
