<svg xmlns="http://www.w3.org/2000/svg" width="26" height="20" viewBox="0 0 26 20">
  <defs>
    <style>
      .cls-1 {
        fill: #fff;
        fill-rule: evenodd;
      }
    </style>
  </defs>
  <path id="mail.svg" class="cls-1" d="M1383.82,36h-19.64a3.2,3.2,0,0,1-3.18-3.214V19.213A3.2,3.2,0,0,1,1364.18,16h19.65a3.192,3.192,0,0,1,3.17,3.219V32.786A3.2,3.2,0,0,1,1383.82,36Zm1.73-3.214V19.219a1.742,1.742,0,0,0-1.73-1.745h-19.64a1.742,1.742,0,0,0-1.73,1.745V32.786a1.742,1.742,0,0,0,1.73,1.746h19.65a1.734,1.734,0,0,0,1.72-1.746h0Zm-1.74.212a0.726,0.726,0,0,1-.53.229,0.715,0.715,0,0,1-.5-0.2l-6.46-6.21-1.82,1.642a0.7,0.7,0,0,1-.48.191,0.741,0.741,0,0,1-.49-0.185l-1.76-1.593-6.5,6.15a0.735,0.735,0,0,1-1-1.077l6.41-6.063-6.44-5.813a0.748,0.748,0,0,1-.06-1.039,0.723,0.723,0,0,1,1.03-.06l6.96,6.3a0.767,0.767,0,0,1,.12.1c0,0.005.01,0.011,0.01,0.016l1.71,1.544,8.77-7.955a0.728,0.728,0,0,1,1.03.054,0.748,0.748,0,0,1-.05,1.039l-6.36,5.764,6.38,6.128A0.748,0.748,0,0,1,1383.81,33Z" transform="translate(-1361 -16)"/>
</svg>
