<svg xmlns="http://www.w3.org/2000/svg" width="11" height="11" viewBox="0 0 11 11">
  <defs>
    <style>
      .cls-1 {
        fill-rule: evenodd;
      }
    </style>
  </defs>
  <path id="more.svg" class="cls-1" d="M579.774,464.036l-4.744,4.739a0.772,0.772,0,0,1-1.093-1.091l4.2-4.194-4.2-4.194a0.772,0.772,0,0,1,1.093-1.091l4.744,4.739A0.773,0.773,0,0,1,579.774,464.036Zm-4.488-.546a0.773,0.773,0,0,1-.226.546l-4.745,4.739a0.772,0.772,0,1,1-1.092-1.091l4.2-4.194-4.2-4.194a0.772,0.772,0,0,1,1.092-1.091l4.745,4.739A0.774,0.774,0,0,1,575.286,463.49Z" transform="translate(-569 -458)"/>
</svg>
