<svg xmlns="http://www.w3.org/2000/svg" width="20" height="21" viewBox="0 0 20 21">
  <defs>
    <style>
      .cls-1 {
        fill: #fff;
        fill-rule: evenodd;
      }
    </style>
  </defs>
  <path id="phone.svg" class="cls-1" d="M1339.46,123.485l-2.48-2.611a1.705,1.705,0,0,0-2.49,0l-1.12,1.187a1.3,1.3,0,0,1-1.89,0l-4.89-5.149a1.45,1.45,0,0,1,0-1.979c0.18-.191.7-0.74,1.13-1.187a1.917,1.917,0,0,0,0-2.612l-2.49-2.6a1.694,1.694,0,0,0-2.48,0c-0.51.533-.67,0.7-0.9,0.944a6.91,6.91,0,0,0,0,9.417l7.75,8.157a6.116,6.116,0,0,0,8.96,0l0.9-.95A1.907,1.907,0,0,0,1339.46,123.485ZM1323.58,109.4a0.568,0.568,0,0,1,.83,0l2.48,2.6a0.635,0.635,0,0,1,0,.87l-0.41.436-3.31-3.48Zm6.85,16.774-7.76-8.156a5.621,5.621,0,0,1-.32-7.3l3.3,3.469a2.724,2.724,0,0,0,.11,3.6l4.9,5.149h0a2.409,2.409,0,0,0,3.42.115l3.3,3.47A4.96,4.96,0,0,1,1330.43,126.176Zm8.21-.95-0.42.436-3.31-3.482,0.41-.436a0.57,0.57,0,0,1,.83,0l2.49,2.612A0.656,0.656,0,0,1,1338.64,125.226Z" transform="translate(-1320 -108)"/>
</svg>
