<svg xmlns="http://www.w3.org/2000/svg" width="18" height="15" viewBox="0 0 18 15">
  <defs>
    <style>
      .cls-1 {
        fill: #fff;
        fill-rule: evenodd;
      }
    </style>
  </defs>
  <path id="poparr-r.svg" class="cls-1" d="M925.012,770.083l-0.028.006h12.045l-3.787-3.807a1,1,0,0,1,0-1.4l0.589-.592a0.983,0.983,0,0,1,1.392,0l6.49,6.511a1,1,0,0,1,0,1.4l-6.49,6.512a0.985,0.985,0,0,1-1.392,0l-0.589-.591a0.982,0.982,0,0,1-.287-0.7,0.955,0.955,0,0,1,.287-0.685l3.829-3.828H925a1.022,1.022,0,0,1-1-1.013v-0.837A1,1,0,0,1,925.012,770.083Z" transform="translate(-924 -764)"/>
</svg>
