<svg xmlns="http://www.w3.org/2000/svg" width="25" height="25" viewBox="0 0 25 25">
  <defs>
    <style>
      .cls-1 {
        fill-rule: evenodd;
      }
    </style>
  </defs>
  <path id="suz.svg" class="cls-1" d="M886,623.916a0.417,0.417,0,0,1,.417-0.416h1.666a0.417,0.417,0,0,1,.417.416v2.5a0.417,0.417,0,0,1-.417.417h-1.666a0.417,0.417,0,0,1-.417-0.417v-2.5ZM886.833,626h0.834v-1.666h-0.834V626Zm-0.416,7.5h1.666a0.417,0.417,0,0,1,.417.416v2.5a0.417,0.417,0,0,1-.417.417h-1.666a0.417,0.417,0,0,1-.417-0.417v-2.5A0.417,0.417,0,0,1,886.417,633.5Zm0.416,2.5h0.834v-1.667h-0.834V636ZM886,628.916a0.417,0.417,0,0,1,.417-0.416h1.666a0.417,0.417,0,0,1,.417.416v2.5a0.417,0.417,0,0,1-.417.417h-1.666a0.417,0.417,0,0,1-.417-0.417v-2.5ZM886.833,631h0.834v-1.667h-0.834V631Zm2.917,10h-3.333a1.25,1.25,0,1,1,0-2.5,1.279,1.279,0,0,1,.214.018,1.664,1.664,0,0,1,2.9,0,1.27,1.27,0,0,1,.214-0.018,1.253,1.253,0,0,1,.417.076V621.833h-4.584a0.417,0.417,0,0,1,0-.833h5a0.417,0.417,0,0,1,.417.416V639.75A1.252,1.252,0,0,1,889.75,641Zm-0.226-1.6a0.417,0.417,0,0,1-.632-0.256,0.83,0.83,0,0,0-1.618,0,0.414,0.414,0,0,1-.249.292,0.42,0.42,0,0,1-.383-0.036,0.409,0.409,0,0,0-.225-0.068,0.417,0.417,0,1,0,0,.833h3.333a0.417,0.417,0,0,0,.417-0.416A0.425,0.425,0,0,0,889.524,639.4Zm-5.607.765h-11.25v0.417a0.417,0.417,0,1,1-.834,0V639.75a0.417,0.417,0,0,1,.417-0.417h11.667A0.417,0.417,0,0,1,883.917,640.166Zm-6.25-8.75a0.417,0.417,0,0,1-.417.417h-1.667a0.417,0.417,0,0,1-.416-0.417h0v-2.5a0.416,0.416,0,0,1,.416-0.416h1.667a0.417,0.417,0,0,1,.417.416v2.5Zm-0.834-2.083H876V631h0.833v-1.667Zm0.417-7.5h-1.667a0.416,0.416,0,0,1-.416-0.416v-2.5a0.416,0.416,0,0,1,.416-0.416h1.667a0.417,0.417,0,0,1,.417.416v2.5A0.417,0.417,0,0,1,877.25,621.833Zm-0.417-2.5H876V621h0.833v-1.667Zm0.834,7.083a0.417,0.417,0,0,1-.417.417h-1.667a0.417,0.417,0,0,1-.416-0.417h0v-2.5a0.416,0.416,0,0,1,.416-0.416h1.667a0.417,0.417,0,0,1,.417.416v2.5Zm-0.834-2.083H876V626h0.833v-1.666Zm5,7.083a0.417,0.417,0,0,1-.416.417H879.75a0.417,0.417,0,0,1-.417-0.417v-2.5a0.417,0.417,0,0,1,.417-0.416h1.667a0.416,0.416,0,0,1,.416.416v2.5ZM881,629.333h-0.833V631H881v-1.667Zm0.417-7.5H879.75a0.417,0.417,0,0,1-.417-0.416v-2.5a0.417,0.417,0,0,1,.417-0.416h1.667a0.416,0.416,0,0,1,.416.416v2.5A0.416,0.416,0,0,1,881.417,621.833Zm-0.417-2.5h-0.833V621H881v-1.667Zm0.833,7.083a0.417,0.417,0,0,1-.416.417H879.75a0.417,0.417,0,0,1-.417-0.417v-2.5a0.417,0.417,0,0,1,.417-0.416h1.667a0.416,0.416,0,0,1,.416.416v2.5ZM881,624.333h-0.833V626H881v-1.666Zm-2.2,11.787a0.441,0.441,0,0,1,.121.3,0.417,0.417,0,1,1-.834,0,0.441,0.441,0,0,1,.121-0.3A0.437,0.437,0,0,1,878.8,636.12Zm-2.379,2.38a0.417,0.417,0,0,1-.417-0.417v-3.75h-1.25a0.417,0.417,0,1,1,0-.833h7.5a0.417,0.417,0,1,1,0,.833H881v3.75a0.417,0.417,0,1,1-.833,0v-3.75h-3.334v3.75A0.417,0.417,0,0,1,876.417,638.5Zm7.5,0a0.417,0.417,0,0,1-.417-0.417v-21.25h-10v21.25a0.417,0.417,0,1,1-.833,0V616.416a0.416,0.416,0,0,1,.416-0.416h10.834a0.416,0.416,0,0,1,.416.416v21.667A0.417,0.417,0,0,1,883.917,638.5Zm-12.5-16.667h-4.584v7.917a0.417,0.417,0,0,1-.833,0v-8.334a0.417,0.417,0,0,1,.417-0.416h5A0.417,0.417,0,0,1,871.417,621.833ZM868.083,631c2.06,0,2.084,5.362,2.084,5.416a2.088,2.088,0,0,1-1.667,2.042v2.125a0.417,0.417,0,1,1-.833,0v-2.125A2.087,2.087,0,0,1,866,636.416C866,636.362,866.024,631,868.083,631Zm0,6.666a1.251,1.251,0,0,0,1.25-1.25c0-2.075-.557-4.583-1.25-4.583s-1.25,2.508-1.25,4.583A1.251,1.251,0,0,0,868.083,637.666Zm2.5-10.833h-1.666a0.417,0.417,0,0,1-.417-0.417v-2.5a0.417,0.417,0,0,1,.417-0.416h1.666a0.417,0.417,0,0,1,.417.416v2.5A0.417,0.417,0,0,1,870.583,626.833Zm-0.416-2.5h-0.834V626h0.834v-1.666Zm-0.834,5.417a0.417,0.417,0,0,1-.833,0v-0.834a0.417,0.417,0,0,1,.417-0.416h1.666a0.417,0.417,0,0,1,.417.416v2.5a0.417,0.417,0,1,1-.833,0v-2.083h-0.834v0.417Z" transform="translate(-866 -616)"/>
</svg>
