<svg xmlns="http://www.w3.org/2000/svg" width="29" height="18" viewBox="0 0 29 18">
  <defs>
    <style>
      .cls-1 {
        fill-rule: evenodd;
      }
    </style>
  </defs>
  <path id="uzt.svg" class="cls-1" d="M389.259,623.67l0.494,14.487h0.219V639H361v-0.847h0.275l0.494-14.487-0.741-1.348V621h4.244v1.322l-0.74,1.348,0.272,8h1.713V630.38a2.157,2.157,0,0,1-.849-1.8c0-1.722,2.695-3.754,3-3.98l0.252-.186,0.252,0.185c0.013,0.01.191,0.142,0.455,0.36v-1.147h11.713v1.1c0.233-.19.388-0.3,0.4-0.313l0.252-.185,0.252,0.186c0.307,0.226,3,2.258,3,3.98a2.164,2.164,0,0,1-.82,1.8v1.288h1.8l0.272-8-0.74-1.348V621H390v1.322Zm-25.083,14.487-0.483-14.166h-1.086l-0.483,14.166h2.052Zm0.247-16.31h-2.546v0.258l0.571,1.04h1.4l0.571-1.04v-0.258Zm10.073,16.31h1.98v-3.075a1.3,1.3,0,1,0-1.98,0v3.075Zm-1.7,0h0.849v-3.075a3.657,3.657,0,0,1,1.6-3.029l0.239-.162,0.239,0.162a3.657,3.657,0,0,1,1.6,3.029v3.075h0.849v-4.769a2.938,2.938,0,1,0-5.376,0v4.769Zm-5.885,0h0.849V636.38a0.425,0.425,0,0,0-.849,0v1.777Zm-2.08-5.643,0.192,5.643h1.039V636.38a1.274,1.274,0,0,1,2.547,0v1.777h1.018v-5.643h-4.8Zm4.8-.847v-1.086h-2.263v1.086h2.263Zm0-5.587c-0.278-.256-0.532-0.467-0.709-0.608-1.021.807-2.4,2.205-2.4,3.105a1.316,1.316,0,0,0,.551,1.158h2.561V626.08Zm10.865-1.425H370.478v13.5h1.471v-4.769a5.337,5.337,0,0,1,3.379-4.978l0.158-.063,0.157,0.063a5.336,5.336,0,0,1,3.379,4.978v4.769h1.472v-13.5Zm2.829,13.5h0.849V636.38a0.425,0.425,0,0,0-.849,0v1.777Zm-1.981-6.49h2.237v-1.086h-2.237v1.086Zm0.653-6.2c-0.165.131-.4,0.324-0.653,0.557h0v3.706h2.534a1.3,1.3,0,0,0,.522-1.158C384.4,627.675,383.016,626.278,382,625.472Zm-0.653,7.042v5.643h1.132V636.38a1.273,1.273,0,0,1,2.546,0v1.777H386l0.192-5.643h-4.853Zm7.562,5.643-0.483-14.166h-1.086l-0.483,14.166H388.9Zm0.247-16.31h-2.546v0.258l0.571,1.04h1.4l0.571-1.04v-0.258Zm-6.932,11.513h3.056v0.847h-3.056V633.36Zm-0.4-5.775,0.6-.6a5.287,5.287,0,0,1,1.025,1.291l-0.759.38A4.469,4.469,0,0,0,381.823,627.585Zm-4.017-1.675H378.6v0.847h-0.792V625.91Zm-1.811,0h0.849v0.847H376V625.91Zm-1.811,0h0.849v0.847h-0.849V625.91Zm-1.81,0h0.848v0.847h-0.848V625.91Zm-4.905,2.365a5.34,5.34,0,0,1,1.054-1.319l0.595,0.6a4.521,4.521,0,0,0-.89,1.1Zm-1.6,5.085h2.943v0.847h-2.943V633.36Zm10.044-2.144h-0.849v-0.847h0.849v0.847Z" transform="translate(-361 -621)"/>
</svg>
