<svg xmlns="http://www.w3.org/2000/svg" width="25" height="25" viewBox="0 0 25 25">
  <defs>
    <style>
      .cls-1 {
        fill-rule: evenodd;
      }
    </style>
  </defs>
  <path id="wt.svg" class="cls-1" d="M641.569,621.31h-1.337a2.144,2.144,0,0,1-.315.756l0.947,0.946a0.431,0.431,0,0,1-.61.61l-0.947-.947a2.141,2.141,0,0,1-.755.316v1.336a0.431,0.431,0,0,1-.862,0v-1.336a2.138,2.138,0,0,1-.756-0.316l-0.947.947a0.431,0.431,0,0,1-.61-0.61l0.947-.946a2.163,2.163,0,0,1-.315-0.756h-1.337a0.431,0.431,0,0,1,0-.862h1.337a2.155,2.155,0,0,1,.315-0.756l-0.947-.947a0.431,0.431,0,0,1,.61-0.609l0.947,0.947a2.138,2.138,0,0,1,.756-0.316v-1.336a0.431,0.431,0,0,1,.862,0v1.336a2.141,2.141,0,0,1,.755.316l0.947-.947a0.431,0.431,0,0,1,.61.609l-0.947.947a2.137,2.137,0,0,1,.315.756h1.337A0.431,0.431,0,1,1,641.569,621.31Zm-3.448-1.724a1.293,1.293,0,1,0,1.293,1.293A1.294,1.294,0,0,0,638.121,619.586Zm-6.056,8.5a2.005,2.005,0,0,0-2.741.734c0,0.007-.01.012-0.014,0.018s-0.019.025-.029,0.038a0.434,0.434,0,0,1-.052.053c-0.006.006-.01,0.012-0.016,0.017l-0.021.012a0.579,0.579,0,0,1-.064.036,0.437,0.437,0,0,1-.046.018,0.515,0.515,0,0,1-.068.015,0.436,0.436,0,0,1-.049.006l-0.015,0-0.056,0a0.106,0.106,0,0,1-.019-0.006,0.481,0.481,0,0,1-.065-0.018,0.419,0.419,0,0,1-.059-0.022,0.209,0.209,0,0,0-.023-0.008,2.021,2.021,0,0,0-2.67.6l2.149,8.133h0c0.431-.016.834-0.027,1.262-0.027,7.554,0,10.033,2.633,10.612,3.449h1.488a0.431,0.431,0,1,1,0,.862H617.431a0.431,0.431,0,0,1,0-.862h1.487c0.517-.739,2.542-2.941,8.469-3.373l-2.132-7.959a2,2,0,0,0-2.594.8,0.231,0.231,0,0,1-.014.019c-0.009.013-.019,0.025-0.029,0.037a0.459,0.459,0,0,1-.053.055c-0.005,0-.009.011-0.015,0.016s-0.014.007-.021,0.012a0.5,0.5,0,0,1-.064.036l-0.045.018a0.341,0.341,0,0,1-.069.015,0.385,0.385,0,0,1-.049.007l-0.014,0a0.366,0.366,0,0,1-.057,0,0.061,0.061,0,0,1-.018,0,0.467,0.467,0,0,1-.064-0.018,0.357,0.357,0,0,1-.057-0.023l-0.02-.007a2.007,2.007,0,0,0-2.741.734,0.433,0.433,0,0,1-.374.215l-0.056,0a0.43,0.43,0,0,1-.36-0.316,7.311,7.311,0,0,1,4.77-8.842l-0.34-1.269a0.431,0.431,0,1,1,.833-0.223l0.34,1.269A7.311,7.311,0,0,1,632.7,627.6,0.431,0.431,0,0,1,632.065,628.089Zm-12,13.049h18.864c-0.987-.936-3.561-2.587-9.429-2.587C623.607,638.551,621.044,640.2,620.065,641.138Zm-0.044-14.871a6.423,6.423,0,0,0-.815,4.055,2.882,2.882,0,0,1,2.477-.621c-0.034-.166-0.064-0.331-0.092-0.5,0-.028-0.01-0.057-0.015-0.085-0.035-.21-0.063-0.419-0.086-0.627-0.009-.07-0.013-0.138-0.02-0.207-0.014-.139-0.027-0.278-0.035-0.415,0-.08-0.008-0.16-0.012-0.239,0-.125-0.009-0.249-0.011-0.372,0-.081,0-0.161,0-0.242,0-.121,0-0.241.011-0.36,0-.076.007-0.151,0.012-0.226,0.009-.128.022-0.252,0.036-0.376,0.007-.062.012-0.125,0.02-0.186,0.025-.183.054-0.362,0.089-0.536,0.042-.206.092-0.4,0.148-0.588,0.019-.062.042-0.116,0.062-0.175,0.041-.121.081-0.242,0.128-0.354,0-.009.007-0.02,0.011-0.03A6.448,6.448,0,0,0,620.021,626.267Zm3.532-2.824c-0.021.014-.043,0.026-0.063,0.041s-0.054.04-.08,0.062a1.935,1.935,0,0,0-.142.133c-0.021.022-.043,0.042-0.064,0.065a2.564,2.564,0,0,0-.186.239C623.01,624,623,624.01,623,624.022a2.768,2.768,0,0,0-.145.247c-0.019.034-.035,0.071-0.053,0.107-0.034.07-.067,0.144-0.1,0.221-0.017.041-.034,0.083-0.05,0.126-0.03.082-.059,0.167-0.085,0.254-0.013.041-.026,0.081-0.038,0.123-0.037.131-.071,0.265-0.1,0.407-0.032.158-.058,0.321-0.08,0.488-0.008.054-.012,0.109-0.018,0.164-0.013.115-.025,0.231-0.033,0.349,0,0.066-.008.132-0.011,0.2-0.006.113-.009,0.227-0.01,0.342,0,0.069,0,.137,0,0.207,0,0.121,0,.245.011,0.368,0,0.064,0,.127.008,0.191,0.01,0.16.025,0.323,0.042,0.486,0,0.029,0,.056.008,0.084,0.022,0.193.05,0.386,0.081,0.581,0.009,0.058.021,0.116,0.031,0.174,0.019,0.1.038,0.207,0.06,0.31a2.886,2.886,0,0,1,2.474-.647Zm2.454,0.611c-0.067-.062-0.134-0.121-0.2-0.176-0.035-.03-0.071-0.058-0.106-0.086-0.066-.051-0.131-0.1-0.2-0.142l-0.1-.066a2.737,2.737,0,0,0-.255-0.144l-0.033-.019a2.427,2.427,0,0,0-.283-0.114c-0.027-.009-0.054-0.015-0.082-0.023a1.812,1.812,0,0,0-.2-0.047c-0.031-.006-0.062-0.009-0.093-0.013s-0.052,0-.079,0l0.75,2.8,0.686,2.559a2.869,2.869,0,0,1,1.17-.63,2.822,2.822,0,0,1,1.294-.044c-0.032-.1-0.066-0.193-0.1-0.287-0.022-.06-0.042-0.12-0.064-0.179-0.07-.183-0.143-0.364-0.219-0.54l-0.039-.083c-0.065-.148-0.133-0.294-0.2-0.436-0.03-.059-0.06-0.116-0.091-0.174-0.056-.108-0.112-0.215-0.171-0.319-0.035-.062-0.07-0.122-0.106-0.183-0.057-.1-0.117-0.194-0.177-0.288-0.036-.056-0.073-0.113-0.11-0.168-0.066-.1-0.133-0.192-0.2-0.284-0.033-.045-0.066-0.092-0.1-0.136-0.1-.133-0.207-0.261-0.314-0.382s-0.192-.207-0.289-0.3C626.07,624.111,626.038,624.084,626.007,624.054Zm2.846-.154a6.443,6.443,0,0,0-2.692-.846l0.025,0.021c0.092,0.07.184,0.151,0.275,0.232,0.051,0.044.1,0.084,0.154,0.132,0.141,0.133.282,0.277,0.421,0.434,0.118,0.132.233,0.274,0.346,0.42,0.036,0.047.07,0.1,0.105,0.144,0.077,0.1.152,0.208,0.225,0.317,0.04,0.058.079,0.12,0.119,0.181,0.066,0.1.132,0.209,0.2,0.316,0.039,0.066.077,0.132,0.115,0.2,0.063,0.112.124,0.225,0.184,0.341,0.034,0.066.07,0.132,0.1,0.2,0.064,0.129.125,0.262,0.186,0.395,0.025,0.058.053,0.114,0.078,0.172q0.128,0.289.241,0.591c0.01,0.026.019,0.053,0.028,0.079,0.058,0.156.115,0.315,0.169,0.475a2.887,2.887,0,0,1,2.455-.7A6.42,6.42,0,0,0,628.853,623.9Z" transform="translate(-617 -617)"/>
</svg>
